<mxfile host="app.diagrams.net" agent="Mozilla/5.0 (Windows NT 10.0; Win64; x64) AppleWebKit/537.36 (KHTML, like Gecko) Chrome/137.0.0.0 Safari/537.36 Edg/137.0.0.0" version="27.0.9">
  <diagram name="PÃ¡gina-1" id="FxbBuSSJgWayEHtvk8GW">
    <mxGraphModel dx="2864" dy="1200" grid="1" gridSize="10" guides="1" tooltips="1" connect="1" arrows="1" fold="1" page="1" pageScale="1" pageWidth="827" pageHeight="1169" math="0" shadow="0">
      <root>
        <mxCell id="0" />
        <mxCell id="1" parent="0" />
        <mxCell id="gaTQBP2WWSis62OiJN2Q-6" style="edgeStyle=orthogonalEdgeStyle;rounded=0;orthogonalLoop=1;jettySize=auto;html=1;" edge="1" parent="1" source="gaTQBP2WWSis62OiJN2Q-1" target="gaTQBP2WWSis62OiJN2Q-3">
          <mxGeometry relative="1" as="geometry" />
        </mxCell>
        <mxCell id="gaTQBP2WWSis62OiJN2Q-7" style="edgeStyle=orthogonalEdgeStyle;rounded=0;orthogonalLoop=1;jettySize=auto;html=1;" edge="1" parent="1" source="gaTQBP2WWSis62OiJN2Q-1" target="gaTQBP2WWSis62OiJN2Q-4">
          <mxGeometry relative="1" as="geometry" />
        </mxCell>
        <mxCell id="gaTQBP2WWSis62OiJN2Q-8" style="edgeStyle=orthogonalEdgeStyle;rounded=0;orthogonalLoop=1;jettySize=auto;html=1;" edge="1" parent="1" source="gaTQBP2WWSis62OiJN2Q-1" target="gaTQBP2WWSis62OiJN2Q-5">
          <mxGeometry relative="1" as="geometry">
            <mxPoint x="-90" y="219.99999999999977" as="targetPoint" />
          </mxGeometry>
        </mxCell>
        <mxCell id="gaTQBP2WWSis62OiJN2Q-145" style="rounded=0;orthogonalLoop=1;jettySize=auto;html=1;entryX=0.5;entryY=0;entryDx=0;entryDy=0;" edge="1" parent="1" source="gaTQBP2WWSis62OiJN2Q-1" target="gaTQBP2WWSis62OiJN2Q-144">
          <mxGeometry relative="1" as="geometry" />
        </mxCell>
        <mxCell id="gaTQBP2WWSis62OiJN2Q-1" value="User" style="whiteSpace=wrap;html=1;align=center;" vertex="1" parent="1">
          <mxGeometry x="-220" y="290" width="100" height="40" as="geometry" />
        </mxCell>
        <mxCell id="gaTQBP2WWSis62OiJN2Q-3" value="username" style="ellipse;whiteSpace=wrap;html=1;align=center;" vertex="1" parent="1">
          <mxGeometry x="-300" y="190" width="80" height="30" as="geometry" />
        </mxCell>
        <mxCell id="gaTQBP2WWSis62OiJN2Q-4" value="email" style="ellipse;whiteSpace=wrap;html=1;align=center;" vertex="1" parent="1">
          <mxGeometry x="-205" y="170" width="70" height="30" as="geometry" />
        </mxCell>
        <mxCell id="gaTQBP2WWSis62OiJN2Q-5" value="password" style="ellipse;whiteSpace=wrap;html=1;align=center;" vertex="1" parent="1">
          <mxGeometry x="-120" y="190" width="60" height="30" as="geometry" />
        </mxCell>
        <mxCell id="gaTQBP2WWSis62OiJN2Q-26" style="rounded=0;orthogonalLoop=1;jettySize=auto;html=1;" edge="1" parent="1" source="gaTQBP2WWSis62OiJN2Q-9" target="gaTQBP2WWSis62OiJN2Q-23">
          <mxGeometry relative="1" as="geometry" />
        </mxCell>
        <mxCell id="gaTQBP2WWSis62OiJN2Q-132" style="rounded=0;orthogonalLoop=1;jettySize=auto;html=1;" edge="1" parent="1" source="gaTQBP2WWSis62OiJN2Q-9" target="gaTQBP2WWSis62OiJN2Q-130">
          <mxGeometry relative="1" as="geometry" />
        </mxCell>
        <mxCell id="gaTQBP2WWSis62OiJN2Q-146" style="rounded=0;orthogonalLoop=1;jettySize=auto;html=1;" edge="1" parent="1" source="gaTQBP2WWSis62OiJN2Q-9" target="gaTQBP2WWSis62OiJN2Q-144">
          <mxGeometry relative="1" as="geometry" />
        </mxCell>
        <mxCell id="gaTQBP2WWSis62OiJN2Q-9" value="Team" style="whiteSpace=wrap;html=1;align=center;" vertex="1" parent="1">
          <mxGeometry x="-190" y="540" width="100" height="40" as="geometry" />
        </mxCell>
        <mxCell id="gaTQBP2WWSis62OiJN2Q-27" style="rounded=0;orthogonalLoop=1;jettySize=auto;html=1;" edge="1" parent="1" source="gaTQBP2WWSis62OiJN2Q-10" target="gaTQBP2WWSis62OiJN2Q-22">
          <mxGeometry relative="1" as="geometry" />
        </mxCell>
        <mxCell id="gaTQBP2WWSis62OiJN2Q-58" style="rounded=0;orthogonalLoop=1;jettySize=auto;html=1;" edge="1" parent="1" target="gaTQBP2WWSis62OiJN2Q-57">
          <mxGeometry relative="1" as="geometry">
            <mxPoint x="413.92857142857156" y="415" as="sourcePoint" />
          </mxGeometry>
        </mxCell>
        <mxCell id="gaTQBP2WWSis62OiJN2Q-117" style="rounded=0;orthogonalLoop=1;jettySize=auto;html=1;" edge="1" parent="1" source="gaTQBP2WWSis62OiJN2Q-10" target="gaTQBP2WWSis62OiJN2Q-116">
          <mxGeometry relative="1" as="geometry" />
        </mxCell>
        <mxCell id="gaTQBP2WWSis62OiJN2Q-150" style="rounded=0;orthogonalLoop=1;jettySize=auto;html=1;" edge="1" parent="1" source="gaTQBP2WWSis62OiJN2Q-10" target="gaTQBP2WWSis62OiJN2Q-149">
          <mxGeometry relative="1" as="geometry" />
        </mxCell>
        <mxCell id="gaTQBP2WWSis62OiJN2Q-10" value="Nurmon" style="whiteSpace=wrap;html=1;align=center;" vertex="1" parent="1">
          <mxGeometry x="392.5" y="410" width="100" height="40" as="geometry" />
        </mxCell>
        <mxCell id="gaTQBP2WWSis62OiJN2Q-34" style="rounded=0;orthogonalLoop=1;jettySize=auto;html=1;" edge="1" parent="1" source="gaTQBP2WWSis62OiJN2Q-12" target="gaTQBP2WWSis62OiJN2Q-33">
          <mxGeometry relative="1" as="geometry" />
        </mxCell>
        <mxCell id="gaTQBP2WWSis62OiJN2Q-12" value="Ability" style="whiteSpace=wrap;html=1;align=center;" vertex="1" parent="1">
          <mxGeometry x="-30" y="765" width="100" height="40" as="geometry" />
        </mxCell>
        <mxCell id="gaTQBP2WWSis62OiJN2Q-39" style="rounded=0;orthogonalLoop=1;jettySize=auto;html=1;" edge="1" parent="1" source="gaTQBP2WWSis62OiJN2Q-13" target="gaTQBP2WWSis62OiJN2Q-38">
          <mxGeometry relative="1" as="geometry" />
        </mxCell>
        <mxCell id="gaTQBP2WWSis62OiJN2Q-13" value="Item" style="whiteSpace=wrap;html=1;align=center;" vertex="1" parent="1">
          <mxGeometry x="140" y="780" width="100" height="40" as="geometry" />
        </mxCell>
        <mxCell id="gaTQBP2WWSis62OiJN2Q-14" value="Movement" style="whiteSpace=wrap;html=1;align=center;" vertex="1" parent="1">
          <mxGeometry x="340" y="780" width="100" height="40" as="geometry" />
        </mxCell>
        <mxCell id="gaTQBP2WWSis62OiJN2Q-111" style="rounded=0;orthogonalLoop=1;jettySize=auto;html=1;entryX=0.5;entryY=1;entryDx=0;entryDy=0;" edge="1" parent="1" source="gaTQBP2WWSis62OiJN2Q-21" target="gaTQBP2WWSis62OiJN2Q-110">
          <mxGeometry relative="1" as="geometry" />
        </mxCell>
        <mxCell id="gaTQBP2WWSis62OiJN2Q-112" style="rounded=0;orthogonalLoop=1;jettySize=auto;html=1;" edge="1" parent="1" source="gaTQBP2WWSis62OiJN2Q-21" target="gaTQBP2WWSis62OiJN2Q-108">
          <mxGeometry relative="1" as="geometry" />
        </mxCell>
        <mxCell id="gaTQBP2WWSis62OiJN2Q-113" style="rounded=0;orthogonalLoop=1;jettySize=auto;html=1;" edge="1" parent="1" source="gaTQBP2WWSis62OiJN2Q-21" target="gaTQBP2WWSis62OiJN2Q-109">
          <mxGeometry relative="1" as="geometry" />
        </mxCell>
        <mxCell id="gaTQBP2WWSis62OiJN2Q-140" style="rounded=0;orthogonalLoop=1;jettySize=auto;html=1;entryX=0;entryY=0.5;entryDx=0;entryDy=0;" edge="1" parent="1" source="gaTQBP2WWSis62OiJN2Q-21" target="gaTQBP2WWSis62OiJN2Q-139">
          <mxGeometry relative="1" as="geometry" />
        </mxCell>
        <mxCell id="gaTQBP2WWSis62OiJN2Q-21" value="TeamMember" style="whiteSpace=wrap;html=1;align=center;" vertex="1" parent="1">
          <mxGeometry x="150" y="510" width="100" height="40" as="geometry" />
        </mxCell>
        <mxCell id="gaTQBP2WWSis62OiJN2Q-28" style="rounded=0;orthogonalLoop=1;jettySize=auto;html=1;" edge="1" parent="1" source="gaTQBP2WWSis62OiJN2Q-22" target="gaTQBP2WWSis62OiJN2Q-21">
          <mxGeometry relative="1" as="geometry" />
        </mxCell>
        <mxCell id="gaTQBP2WWSis62OiJN2Q-22" value="is" style="shape=rhombus;perimeter=rhombusPerimeter;whiteSpace=wrap;html=1;align=center;" vertex="1" parent="1">
          <mxGeometry x="330" y="510" width="120" height="60" as="geometry" />
        </mxCell>
        <mxCell id="gaTQBP2WWSis62OiJN2Q-25" style="rounded=0;orthogonalLoop=1;jettySize=auto;html=1;" edge="1" parent="1" source="gaTQBP2WWSis62OiJN2Q-23" target="gaTQBP2WWSis62OiJN2Q-21">
          <mxGeometry relative="1" as="geometry" />
        </mxCell>
        <mxCell id="gaTQBP2WWSis62OiJN2Q-23" value="Relationship" style="shape=rhombus;perimeter=rhombusPerimeter;whiteSpace=wrap;html=1;align=center;" vertex="1" parent="1">
          <mxGeometry x="-40" y="530" width="120" height="60" as="geometry" />
        </mxCell>
        <mxCell id="gaTQBP2WWSis62OiJN2Q-29" value="1" style="text;html=1;align=center;verticalAlign=middle;resizable=0;points=[];autosize=1;strokeColor=none;fillColor=none;" vertex="1" parent="1">
          <mxGeometry x="-60" y="525" width="30" height="30" as="geometry" />
        </mxCell>
        <mxCell id="gaTQBP2WWSis62OiJN2Q-30" value="N" style="text;html=1;align=center;verticalAlign=middle;resizable=0;points=[];autosize=1;strokeColor=none;fillColor=none;" vertex="1" parent="1">
          <mxGeometry x="110" y="500" width="30" height="30" as="geometry" />
        </mxCell>
        <mxCell id="gaTQBP2WWSis62OiJN2Q-31" value="N" style="text;html=1;align=center;verticalAlign=middle;resizable=0;points=[];autosize=1;strokeColor=none;fillColor=none;" vertex="1" parent="1">
          <mxGeometry x="290" y="510" width="30" height="30" as="geometry" />
        </mxCell>
        <mxCell id="gaTQBP2WWSis62OiJN2Q-32" value="1" style="text;html=1;align=center;verticalAlign=middle;resizable=0;points=[];autosize=1;strokeColor=none;fillColor=none;" vertex="1" parent="1">
          <mxGeometry x="375" y="468" width="30" height="30" as="geometry" />
        </mxCell>
        <mxCell id="gaTQBP2WWSis62OiJN2Q-35" style="rounded=0;orthogonalLoop=1;jettySize=auto;html=1;" edge="1" parent="1" source="gaTQBP2WWSis62OiJN2Q-33" target="gaTQBP2WWSis62OiJN2Q-21">
          <mxGeometry relative="1" as="geometry" />
        </mxCell>
        <mxCell id="gaTQBP2WWSis62OiJN2Q-33" value="belongsTo" style="shape=rhombus;perimeter=rhombusPerimeter;whiteSpace=wrap;html=1;align=center;" vertex="1" parent="1">
          <mxGeometry x="15" y="648" width="100" height="50" as="geometry" />
        </mxCell>
        <mxCell id="gaTQBP2WWSis62OiJN2Q-36" value="1" style="text;html=1;align=center;verticalAlign=middle;resizable=0;points=[];autosize=1;strokeColor=none;fillColor=none;" vertex="1" parent="1">
          <mxGeometry x="15" y="690" width="30" height="30" as="geometry" />
        </mxCell>
        <mxCell id="gaTQBP2WWSis62OiJN2Q-37" value="N" style="text;html=1;align=center;verticalAlign=middle;resizable=0;points=[];autosize=1;strokeColor=none;fillColor=none;" vertex="1" parent="1">
          <mxGeometry x="65" y="618" width="30" height="30" as="geometry" />
        </mxCell>
        <mxCell id="gaTQBP2WWSis62OiJN2Q-40" style="rounded=0;orthogonalLoop=1;jettySize=auto;html=1;" edge="1" parent="1" source="gaTQBP2WWSis62OiJN2Q-38" target="gaTQBP2WWSis62OiJN2Q-21">
          <mxGeometry relative="1" as="geometry" />
        </mxCell>
        <mxCell id="gaTQBP2WWSis62OiJN2Q-38" value="belongsTo" style="shape=rhombus;perimeter=rhombusPerimeter;whiteSpace=wrap;html=1;align=center;" vertex="1" parent="1">
          <mxGeometry x="140" y="660" width="100" height="50" as="geometry" />
        </mxCell>
        <mxCell id="gaTQBP2WWSis62OiJN2Q-41" value="N" style="text;html=1;align=center;verticalAlign=middle;resizable=0;points=[];autosize=1;strokeColor=none;fillColor=none;" vertex="1" parent="1">
          <mxGeometry x="165" y="628" width="30" height="30" as="geometry" />
        </mxCell>
        <mxCell id="gaTQBP2WWSis62OiJN2Q-42" value="N" style="text;html=1;align=center;verticalAlign=middle;resizable=0;points=[];autosize=1;strokeColor=none;fillColor=none;" vertex="1" parent="1">
          <mxGeometry x="150" y="710" width="30" height="30" as="geometry" />
        </mxCell>
        <mxCell id="gaTQBP2WWSis62OiJN2Q-44" style="rounded=0;orthogonalLoop=1;jettySize=auto;html=1;" edge="1" parent="1" source="gaTQBP2WWSis62OiJN2Q-43" target="gaTQBP2WWSis62OiJN2Q-21">
          <mxGeometry relative="1" as="geometry" />
        </mxCell>
        <mxCell id="gaTQBP2WWSis62OiJN2Q-43" value="belongsTo" style="shape=rhombus;perimeter=rhombusPerimeter;whiteSpace=wrap;html=1;align=center;" vertex="1" parent="1">
          <mxGeometry x="265" y="638" width="95" height="62" as="geometry" />
        </mxCell>
        <mxCell id="gaTQBP2WWSis62OiJN2Q-45" style="rounded=0;orthogonalLoop=1;jettySize=auto;html=1;entryX=0.5;entryY=1;entryDx=0;entryDy=0;" edge="1" parent="1" source="gaTQBP2WWSis62OiJN2Q-14" target="gaTQBP2WWSis62OiJN2Q-43">
          <mxGeometry relative="1" as="geometry" />
        </mxCell>
        <mxCell id="gaTQBP2WWSis62OiJN2Q-46" value="N" style="text;html=1;align=center;verticalAlign=middle;resizable=0;points=[];autosize=1;strokeColor=none;fillColor=none;" vertex="1" parent="1">
          <mxGeometry x="280" y="608" width="30" height="30" as="geometry" />
        </mxCell>
        <mxCell id="gaTQBP2WWSis62OiJN2Q-47" value="N" style="text;html=1;align=center;verticalAlign=middle;resizable=0;points=[];autosize=1;strokeColor=none;fillColor=none;" vertex="1" parent="1">
          <mxGeometry x="320" y="690" width="30" height="30" as="geometry" />
        </mxCell>
        <mxCell id="gaTQBP2WWSis62OiJN2Q-77" style="rounded=0;orthogonalLoop=1;jettySize=auto;html=1;entryX=0.5;entryY=1;entryDx=0;entryDy=0;" edge="1" parent="1" source="gaTQBP2WWSis62OiJN2Q-48" target="gaTQBP2WWSis62OiJN2Q-75">
          <mxGeometry relative="1" as="geometry" />
        </mxCell>
        <mxCell id="gaTQBP2WWSis62OiJN2Q-48" value="Type" style="whiteSpace=wrap;html=1;align=center;" vertex="1" parent="1">
          <mxGeometry x="840" y="410" width="100" height="40" as="geometry" />
        </mxCell>
        <mxCell id="gaTQBP2WWSis62OiJN2Q-50" style="edgeStyle=orthogonalEdgeStyle;rounded=0;orthogonalLoop=1;jettySize=auto;html=1;" edge="1" parent="1" target="gaTQBP2WWSis62OiJN2Q-48">
          <mxGeometry relative="1" as="geometry">
            <mxPoint x="810" y="430" as="sourcePoint" />
          </mxGeometry>
        </mxCell>
        <mxCell id="gaTQBP2WWSis62OiJN2Q-51" style="edgeStyle=orthogonalEdgeStyle;rounded=0;orthogonalLoop=1;jettySize=auto;html=1;" edge="1" parent="1" source="gaTQBP2WWSis62OiJN2Q-49" target="gaTQBP2WWSis62OiJN2Q-10">
          <mxGeometry relative="1" as="geometry" />
        </mxCell>
        <mxCell id="gaTQBP2WWSis62OiJN2Q-92" style="edgeStyle=orthogonalEdgeStyle;rounded=0;orthogonalLoop=1;jettySize=auto;html=1;" edge="1" parent="1" source="gaTQBP2WWSis62OiJN2Q-49" target="gaTQBP2WWSis62OiJN2Q-48">
          <mxGeometry relative="1" as="geometry" />
        </mxCell>
        <mxCell id="gaTQBP2WWSis62OiJN2Q-49" value="is of" style="shape=rhombus;perimeter=rhombusPerimeter;whiteSpace=wrap;html=1;align=center;" vertex="1" parent="1">
          <mxGeometry x="630" y="400" width="120" height="60" as="geometry" />
        </mxCell>
        <mxCell id="gaTQBP2WWSis62OiJN2Q-52" value="N" style="text;html=1;align=center;verticalAlign=middle;resizable=0;points=[];autosize=1;strokeColor=none;fillColor=none;" vertex="1" parent="1">
          <mxGeometry x="730" y="390" width="30" height="30" as="geometry" />
        </mxCell>
        <mxCell id="gaTQBP2WWSis62OiJN2Q-53" value="N" style="text;html=1;align=center;verticalAlign=middle;resizable=0;points=[];autosize=1;strokeColor=none;fillColor=none;" vertex="1" parent="1">
          <mxGeometry x="620" y="390" width="30" height="30" as="geometry" />
        </mxCell>
        <mxCell id="gaTQBP2WWSis62OiJN2Q-57" value="name" style="ellipse;whiteSpace=wrap;html=1;align=center;" vertex="1" parent="1">
          <mxGeometry x="335" y="340" width="75" height="40" as="geometry" />
        </mxCell>
        <mxCell id="gaTQBP2WWSis62OiJN2Q-65" style="rounded=0;orthogonalLoop=1;jettySize=auto;html=1;" edge="1" parent="1" source="gaTQBP2WWSis62OiJN2Q-61" target="gaTQBP2WWSis62OiJN2Q-12">
          <mxGeometry relative="1" as="geometry" />
        </mxCell>
        <mxCell id="gaTQBP2WWSis62OiJN2Q-61" value="name" style="ellipse;whiteSpace=wrap;html=1;align=center;" vertex="1" parent="1">
          <mxGeometry x="-135" y="840" width="60" height="35" as="geometry" />
        </mxCell>
        <mxCell id="gaTQBP2WWSis62OiJN2Q-66" style="rounded=0;orthogonalLoop=1;jettySize=auto;html=1;" edge="1" parent="1" source="gaTQBP2WWSis62OiJN2Q-62" target="gaTQBP2WWSis62OiJN2Q-12">
          <mxGeometry relative="1" as="geometry" />
        </mxCell>
        <mxCell id="gaTQBP2WWSis62OiJN2Q-62" value="description" style="ellipse;whiteSpace=wrap;html=1;align=center;" vertex="1" parent="1">
          <mxGeometry x="-55" y="865" width="70" height="40" as="geometry" />
        </mxCell>
        <mxCell id="gaTQBP2WWSis62OiJN2Q-67" style="rounded=0;orthogonalLoop=1;jettySize=auto;html=1;" edge="1" parent="1" source="gaTQBP2WWSis62OiJN2Q-63" target="gaTQBP2WWSis62OiJN2Q-13">
          <mxGeometry relative="1" as="geometry" />
        </mxCell>
        <mxCell id="gaTQBP2WWSis62OiJN2Q-63" value="name" style="ellipse;whiteSpace=wrap;html=1;align=center;" vertex="1" parent="1">
          <mxGeometry x="105" y="882.5" width="60" height="35" as="geometry" />
        </mxCell>
        <mxCell id="gaTQBP2WWSis62OiJN2Q-68" style="rounded=0;orthogonalLoop=1;jettySize=auto;html=1;" edge="1" parent="1" source="gaTQBP2WWSis62OiJN2Q-64" target="gaTQBP2WWSis62OiJN2Q-13">
          <mxGeometry relative="1" as="geometry" />
        </mxCell>
        <mxCell id="gaTQBP2WWSis62OiJN2Q-64" value="description" style="ellipse;whiteSpace=wrap;html=1;align=center;" vertex="1" parent="1">
          <mxGeometry x="230" y="890" width="70" height="40" as="geometry" />
        </mxCell>
        <mxCell id="gaTQBP2WWSis62OiJN2Q-71" style="rounded=0;orthogonalLoop=1;jettySize=auto;html=1;" edge="1" parent="1" source="gaTQBP2WWSis62OiJN2Q-69" target="gaTQBP2WWSis62OiJN2Q-14">
          <mxGeometry relative="1" as="geometry" />
        </mxCell>
        <mxCell id="gaTQBP2WWSis62OiJN2Q-69" value="name" style="ellipse;whiteSpace=wrap;html=1;align=center;" vertex="1" parent="1">
          <mxGeometry x="350" y="860" width="60" height="37" as="geometry" />
        </mxCell>
        <mxCell id="gaTQBP2WWSis62OiJN2Q-72" style="rounded=0;orthogonalLoop=1;jettySize=auto;html=1;" edge="1" parent="1" source="gaTQBP2WWSis62OiJN2Q-70" target="gaTQBP2WWSis62OiJN2Q-14">
          <mxGeometry relative="1" as="geometry" />
        </mxCell>
        <mxCell id="gaTQBP2WWSis62OiJN2Q-70" value="description" style="ellipse;whiteSpace=wrap;html=1;align=center;" vertex="1" parent="1">
          <mxGeometry x="420" y="858.5" width="70" height="40" as="geometry" />
        </mxCell>
        <mxCell id="gaTQBP2WWSis62OiJN2Q-75" value="name" style="ellipse;whiteSpace=wrap;html=1;align=center;" vertex="1" parent="1">
          <mxGeometry x="840" y="310" width="100" height="40" as="geometry" />
        </mxCell>
        <mxCell id="gaTQBP2WWSis62OiJN2Q-93" value="Nature" style="whiteSpace=wrap;html=1;align=center;" vertex="1" parent="1">
          <mxGeometry x="570" y="598" width="100" height="40" as="geometry" />
        </mxCell>
        <mxCell id="gaTQBP2WWSis62OiJN2Q-108" value="jsonEV" style="ellipse;whiteSpace=wrap;html=1;align=center;" vertex="1" parent="1">
          <mxGeometry x="150" y="400" width="100" height="40" as="geometry" />
        </mxCell>
        <mxCell id="gaTQBP2WWSis62OiJN2Q-109" value="jsonIV" style="ellipse;whiteSpace=wrap;html=1;align=center;" vertex="1" parent="1">
          <mxGeometry x="250" y="428" width="100" height="40" as="geometry" />
        </mxCell>
        <mxCell id="gaTQBP2WWSis62OiJN2Q-110" value="nickname" style="ellipse;whiteSpace=wrap;html=1;align=center;" vertex="1" parent="1">
          <mxGeometry x="50" y="440" width="100" height="40" as="geometry" />
        </mxCell>
        <mxCell id="gaTQBP2WWSis62OiJN2Q-122" style="rounded=0;orthogonalLoop=1;jettySize=auto;html=1;" edge="1" parent="1" source="gaTQBP2WWSis62OiJN2Q-115" target="gaTQBP2WWSis62OiJN2Q-119">
          <mxGeometry relative="1" as="geometry" />
        </mxCell>
        <mxCell id="gaTQBP2WWSis62OiJN2Q-123" style="rounded=0;orthogonalLoop=1;jettySize=auto;html=1;" edge="1" parent="1" source="gaTQBP2WWSis62OiJN2Q-115" target="gaTQBP2WWSis62OiJN2Q-121">
          <mxGeometry relative="1" as="geometry" />
        </mxCell>
        <mxCell id="gaTQBP2WWSis62OiJN2Q-129" style="rounded=0;orthogonalLoop=1;jettySize=auto;html=1;" edge="1" parent="1" source="gaTQBP2WWSis62OiJN2Q-115" target="gaTQBP2WWSis62OiJN2Q-128">
          <mxGeometry relative="1" as="geometry" />
        </mxCell>
        <mxCell id="gaTQBP2WWSis62OiJN2Q-115" value="Stat" style="whiteSpace=wrap;html=1;align=center;" vertex="1" parent="1">
          <mxGeometry x="470" y="180" width="100" height="40" as="geometry" />
        </mxCell>
        <mxCell id="gaTQBP2WWSis62OiJN2Q-118" style="rounded=0;orthogonalLoop=1;jettySize=auto;html=1;" edge="1" parent="1" source="gaTQBP2WWSis62OiJN2Q-116" target="gaTQBP2WWSis62OiJN2Q-115">
          <mxGeometry relative="1" as="geometry" />
        </mxCell>
        <mxCell id="gaTQBP2WWSis62OiJN2Q-116" value="Has" style="shape=rhombus;perimeter=rhombusPerimeter;whiteSpace=wrap;html=1;align=center;" vertex="1" parent="1">
          <mxGeometry x="500" y="280" width="120" height="60" as="geometry" />
        </mxCell>
        <mxCell id="gaTQBP2WWSis62OiJN2Q-119" value="statType" style="ellipse;whiteSpace=wrap;html=1;align=center;" vertex="1" parent="1">
          <mxGeometry x="440" y="70" width="100" height="40" as="geometry" />
        </mxCell>
        <mxCell id="gaTQBP2WWSis62OiJN2Q-121" value="value" style="ellipse;whiteSpace=wrap;html=1;align=center;" vertex="1" parent="1">
          <mxGeometry x="590" y="110" width="100" height="40" as="geometry" />
        </mxCell>
        <mxCell id="gaTQBP2WWSis62OiJN2Q-124" value="1" style="text;html=1;align=center;verticalAlign=middle;resizable=0;points=[];autosize=1;strokeColor=none;fillColor=none;" vertex="1" parent="1">
          <mxGeometry x="535" y="335" width="30" height="30" as="geometry" />
        </mxCell>
        <mxCell id="gaTQBP2WWSis62OiJN2Q-125" value="N" style="text;html=1;align=center;verticalAlign=middle;resizable=0;points=[];autosize=1;strokeColor=none;fillColor=none;" vertex="1" parent="1">
          <mxGeometry x="545" y="250" width="30" height="30" as="geometry" />
        </mxCell>
        <mxCell id="gaTQBP2WWSis62OiJN2Q-127" value="SIEMPRE VAN A TENER 6:&lt;br&gt;hp, atk, df, sp atk, sp df, speed" style="text;html=1;align=center;verticalAlign=middle;resizable=0;points=[];autosize=1;strokeColor=none;fillColor=none;" vertex="1" parent="1">
          <mxGeometry x="590" y="200" width="190" height="40" as="geometry" />
        </mxCell>
        <mxCell id="gaTQBP2WWSis62OiJN2Q-128" value="nurmon_id" style="ellipse;whiteSpace=wrap;html=1;align=center;" vertex="1" parent="1">
          <mxGeometry x="540" y="50" width="100" height="40" as="geometry" />
        </mxCell>
        <mxCell id="gaTQBP2WWSis62OiJN2Q-130" value="name" style="ellipse;whiteSpace=wrap;html=1;align=center;" vertex="1" parent="1">
          <mxGeometry x="-280" y="550" width="60" height="30" as="geometry" />
        </mxCell>
        <mxCell id="gaTQBP2WWSis62OiJN2Q-137" style="rounded=0;orthogonalLoop=1;jettySize=auto;html=1;" edge="1" parent="1" source="gaTQBP2WWSis62OiJN2Q-133" target="gaTQBP2WWSis62OiJN2Q-93">
          <mxGeometry relative="1" as="geometry" />
        </mxCell>
        <mxCell id="gaTQBP2WWSis62OiJN2Q-133" value="boost_stat_id" style="ellipse;whiteSpace=wrap;html=1;align=center;" vertex="1" parent="1">
          <mxGeometry x="500" y="690" width="100" height="40" as="geometry" />
        </mxCell>
        <mxCell id="gaTQBP2WWSis62OiJN2Q-138" style="rounded=0;orthogonalLoop=1;jettySize=auto;html=1;" edge="1" parent="1" source="gaTQBP2WWSis62OiJN2Q-134" target="gaTQBP2WWSis62OiJN2Q-93">
          <mxGeometry relative="1" as="geometry" />
        </mxCell>
        <mxCell id="gaTQBP2WWSis62OiJN2Q-134" value="nerf_stat_id" style="ellipse;whiteSpace=wrap;html=1;align=center;" vertex="1" parent="1">
          <mxGeometry x="640" y="685" width="100" height="40" as="geometry" />
        </mxCell>
        <mxCell id="gaTQBP2WWSis62OiJN2Q-141" style="rounded=0;orthogonalLoop=1;jettySize=auto;html=1;" edge="1" parent="1" source="gaTQBP2WWSis62OiJN2Q-139" target="gaTQBP2WWSis62OiJN2Q-93">
          <mxGeometry relative="1" as="geometry" />
        </mxCell>
        <mxCell id="gaTQBP2WWSis62OiJN2Q-139" value="has" style="shape=rhombus;perimeter=rhombusPerimeter;whiteSpace=wrap;html=1;align=center;" vertex="1" parent="1">
          <mxGeometry x="360" y="600" width="120" height="60" as="geometry" />
        </mxCell>
        <mxCell id="gaTQBP2WWSis62OiJN2Q-142" value="N" style="text;html=1;align=center;verticalAlign=middle;resizable=0;points=[];autosize=1;strokeColor=none;fillColor=none;" vertex="1" parent="1">
          <mxGeometry x="360" y="590" width="30" height="30" as="geometry" />
        </mxCell>
        <mxCell id="gaTQBP2WWSis62OiJN2Q-143" value="1" style="text;html=1;align=center;verticalAlign=middle;resizable=0;points=[];autosize=1;strokeColor=none;fillColor=none;" vertex="1" parent="1">
          <mxGeometry x="450" y="590" width="30" height="30" as="geometry" />
        </mxCell>
        <mxCell id="gaTQBP2WWSis62OiJN2Q-144" value="has" style="shape=rhombus;perimeter=rhombusPerimeter;whiteSpace=wrap;html=1;align=center;" vertex="1" parent="1">
          <mxGeometry x="-240" y="428" width="120" height="60" as="geometry" />
        </mxCell>
        <mxCell id="gaTQBP2WWSis62OiJN2Q-147" value="1" style="text;html=1;align=center;verticalAlign=middle;resizable=0;points=[];autosize=1;strokeColor=none;fillColor=none;" vertex="1" parent="1">
          <mxGeometry x="-170" y="390" width="30" height="30" as="geometry" />
        </mxCell>
        <mxCell id="gaTQBP2WWSis62OiJN2Q-148" value="N" style="text;html=1;align=center;verticalAlign=middle;resizable=0;points=[];autosize=1;strokeColor=none;fillColor=none;" vertex="1" parent="1">
          <mxGeometry x="-165" y="478" width="30" height="30" as="geometry" />
        </mxCell>
        <mxCell id="gaTQBP2WWSis62OiJN2Q-149" value="image" style="ellipse;whiteSpace=wrap;html=1;align=center;" vertex="1" parent="1">
          <mxGeometry x="405" y="335" width="70" height="30" as="geometry" />
        </mxCell>
        <mxCell id="gaTQBP2WWSis62OiJN2Q-152" style="rounded=0;orthogonalLoop=1;jettySize=auto;html=1;" edge="1" parent="1" source="gaTQBP2WWSis62OiJN2Q-151" target="gaTQBP2WWSis62OiJN2Q-13">
          <mxGeometry relative="1" as="geometry" />
        </mxCell>
        <mxCell id="gaTQBP2WWSis62OiJN2Q-151" value="image" style="ellipse;whiteSpace=wrap;html=1;align=center;" vertex="1" parent="1">
          <mxGeometry x="160" y="917.5" width="60" height="22.5" as="geometry" />
        </mxCell>
      </root>
    </mxGraphModel>
  </diagram>
</mxfile>
